<?xml version="1.0" encoding="UTF-8"?>
<svg width="10mm" height="3.93mm" version="1.1" viewBox="0 0 10 3.93" xmlns="http://www.w3.org/2000/svg">
 <g transform="translate(0,-293.07)">
  <g aria-label="luax">
   <path d="m0 293.07v3.9296h0.80912v-3.9296zm1.1548 1.3732v1.7637c0 0.17012 0.02485 0.32367 0.07464 0.4606 0.04995 0.1268 0.11611 0.23739 0.19809 0.33217h2.4845v-2.5565h-0.80292v1.5147c0 0.20332-0.05392 0.3714-0.1618 0.50418-0.10373 0.12863-0.25934 0.19292-0.4668 0.19292-0.3444 0-0.51658-0.19088-0.51658-0.57262v-1.6392zm3.3997 0c-0.08567 0.088-0.15047 0.19038-0.19432 0.30731-0.04564 0.13278-0.07055 0.27801-0.0747 0.43568h0.75308c0.02075-0.13693 0.07056-0.24687 0.1494-0.32986 0.08299-0.083 0.21784-0.12448 0.40456-0.12448 0.15768 0 0.28216 0.029 0.37344 0.0871 0.09544 0.0539 0.14314 0.13072 0.14314 0.2303 0 0.10788-0.03528 0.18671-0.10582 0.2365-0.07054 0.0456-0.20744 0.083-0.41076 0.11202-0.20332 0.029-0.39215 0.0623-0.56642 0.0996-0.17012 0.0332-0.3174 0.0871-0.44188 0.1618-0.12448 0.0747-0.222 0.17842-0.29254 0.3112-0.07054 0.12863-0.10582 0.30293-0.10582 0.52284 0 0.1976 0.05122 0.36634 0.15317 0.50643h1.7752 0.02194 0.80068v-1.6828c0-0.19087-0.0228-0.361-0.06844-0.51038-0.04323-0.14539-0.11285-0.26628-0.20818-0.36329zm2.795 0 0.82797 1.2471-0.86073 1.3094h0.94825l0.37928-0.66829 0.38833 0.66829h0.96728l-0.87635-1.3094 0.84347-1.2471h-0.91732l-0.37429 0.63717-0.3698-0.63717zm-1.2218 1.3094-0.0062 0.33612c0 0.0913-0.02075 0.17844-0.06224 0.26142-0.03734 0.0788-0.08921 0.14934-0.1556 0.21158-0.06224 0.0581-0.13902 0.1058-0.2303 0.14314-0.08714 0.0332-0.18255 0.0498-0.28628 0.0498-0.26141 0-0.39216-0.1141-0.39216-0.34232 0-0.13278 0.0436-0.23446 0.13074-0.305 0.08714-0.0705 0.2469-0.12862 0.47926-0.17426 0.14938-0.029 0.26348-0.056 0.34232-0.0809 0.07884-0.0249 0.13897-0.0581 0.18046-0.0996z" fill="#3090ff" stroke-width=".03112"/>
  </g>
 </g>
</svg>
