<?xml version="1.0" encoding="UTF-8" standalone="no"?>
<svg
   xmlns:dc="http://purl.org/dc/elements/1.1/"
   xmlns:cc="http://creativecommons.org/ns#"
   xmlns:rdf="http://www.w3.org/1999/02/22-rdf-syntax-ns#"
   xmlns:svg="http://www.w3.org/2000/svg"
   xmlns="http://www.w3.org/2000/svg"
   width="42.5mm"
   height="10mm"
   viewBox="0 0 42.5 10"
   version="1.1"
   id="svg8">
  <defs
     id="defs2" />
  <metadata
     id="metadata5">
    <rdf:RDF>
      <cc:Work
         rdf:about="">
        <dc:format>image/svg+xml</dc:format>
        <dc:type
           rdf:resource="http://purl.org/dc/dcmitype/StillImage" />
        <dc:title></dc:title>
      </cc:Work>
    </rdf:RDF>
  </metadata>
  <g
     id="layer1">
    <path
       id="path2766"
       style="fill:#3090ff;fill-opacity:1;stroke-width:0.0411148"
       d="M 0,9.368015e-5 V 10.000094 H 9.9999066 L 5.0002116,5.0000927 Z" />
    <path
       id="path2769"
       style="fill:#ff9f30;fill-opacity:1;stroke:none;stroke-width:0.0915188;stroke-miterlimit:4;stroke-dasharray:none"
       d="M 9.9999063,0 V 5.0002114 A 5,5 0 0 0 15.000118,10.000423 5,5 0 0 0 19.999813,5.0002114 V 0 Z" />
    <path
       style="fill:#ff3090;fill-opacity:1;stroke:none;stroke-width:0.040986;stroke-miterlimit:4;stroke-dasharray:none"
       id="path2818"
       d="m 21.546911,20.000001 -5.773502,0 -5.7735027,0 2.8867517,-5 2.886751,-5 2.886751,5 z"
       transform="matrix(1.0000294,0,0,1,9.9998002,-9.9999079)" />
    <path
       style="fill:#90ff30;stroke-width:0.0561127"
       id="path842"
       d="m 42.5,10.000094 -10,0 5,-8.6602545 z"
       transform="matrix(1,0,0,0.92376041,1.2944199e-7,0.76230935)" />
    <path
       style="fill:#90ff30;stroke-width:0.0561127"
       id="path842-3"
       d="m 42.5,10.000094 -10,0 5,-8.6602545 z"
       transform="matrix(-1,0,0,-0.92376041,75,9.2377841)" />
  </g>
</svg>
