<?xml version="1.0" encoding="UTF-8" standalone="no"?>
<svg
   xmlns:dc="http://purl.org/dc/elements/1.1/"
   xmlns:cc="http://creativecommons.org/ns#"
   xmlns:rdf="http://www.w3.org/1999/02/22-rdf-syntax-ns#"
   xmlns:svg="http://www.w3.org/2000/svg"
   xmlns="http://www.w3.org/2000/svg"
   width="22.5mm"
   height="22.5mm"
   viewBox="0 0 22.5 22.5"
   version="1.1"
   id="svg8">
  <defs
     id="defs2" />
  <metadata
     id="metadata5">
    <rdf:RDF>
      <cc:Work
         rdf:about="">
        <dc:format>image/svg+xml</dc:format>
        <dc:type
           rdf:resource="http://purl.org/dc/dcmitype/StillImage" />
        <dc:title></dc:title>
      </cc:Work>
    </rdf:RDF>
  </metadata>
  <g
     id="layer1">
    <path
       id="path2766"
       style="fill:#3090ff;fill-opacity:1;stroke-width:0.0411148"
       d="m 0.7735,0 v 10 h 9.999907 L 5.7737116,4.999999 Z" />
    <path
       id="path2769"
       style="fill:#ff9f30;fill-opacity:1;stroke:none;stroke-width:0.0915188;stroke-miterlimit:4;stroke-dasharray:none"
       d="m 12.5,0 v 5.0002114 a 5,5 0 0 0 5.000212,5.0002116 5,5 0 0 0 4.999695,-5.0002116 V 0 Z" />
    <path
       style="fill:#ff3090;fill-opacity:1;stroke:none;stroke-width:0.040986;stroke-miterlimit:4;stroke-dasharray:none"
       id="path2818"
       d="m 21.546911,20.000001 -5.773502,0 -5.7735027,0 2.8867517,-5 2.886751,-5 2.886751,5 z"
       transform="matrix(1.0000294,0,0,1,-10.0002,2.4999986)" />
    <path
       style="fill:#90ff30;stroke-width:0.0561127"
       id="path842"
       d="m 42.5,10.000094 -10,0 5,-8.6602545 z"
       transform="matrix(1,0,0,0.92376041,-19.999999,13.262216)" />
    <path
       style="fill:#90ff30;stroke-width:0.0561127"
       id="path842-3"
       d="m 42.5,10.000094 -10,0 5,-8.6602545 z"
       transform="matrix(-1,0,0,-0.92376041,55,21.737691)" />
  </g>
</svg>
