<?xml version="1.0" encoding="UTF-8" standalone="no"?>
<svg
   xmlns:dc="http://purl.org/dc/elements/1.1/"
   xmlns:cc="http://creativecommons.org/ns#"
   xmlns:rdf="http://www.w3.org/1999/02/22-rdf-syntax-ns#"
   xmlns:svg="http://www.w3.org/2000/svg"
   xmlns="http://www.w3.org/2000/svg"
   id="svg8"
   version="1.1"
   viewBox="0 0 95.062146 27.967253"
   height="105.703"
   width="359.29001">
  <title
     id="title832">luax</title>
  <defs
     id="defs2" />
  <metadata
     id="metadata5">
    <rdf:RDF>
      <cc:Work
         rdf:about="">
        <dc:format>image/svg+xml</dc:format>
        <dc:type
           rdf:resource="http://purl.org/dc/dcmitype/StillImage" />
        <dc:title>luax</dc:title>
      </cc:Work>
    </rdf:RDF>
  </metadata>
  <g
     transform="translate(0,-269.03274)"
     id="layer1">
    <g
       id="text4530"
       style="font-style:normal;font-variant:normal;font-weight:bold;font-stretch:normal;font-size:10.58333302px;line-height:1.25;font-family:'Roboto Mono';-inkscape-font-specification:'Roboto Mono Bold';letter-spacing:0px;word-spacing:0px;fill:#000000;fill-opacity:1;stroke:none;stroke-width:0.26458332"
       aria-label="LUAX">
      <path
         id="path823"
         style="font-style:normal;font-variant:normal;font-weight:bold;font-stretch:normal;font-size:38.80555344px;font-family:'Roboto Black';-inkscape-font-specification:'Roboto Black, Bold';fill:#3090ff;fill-opacity:1;stroke-width:0.26458332"
         d="M 6.6507565,291.50507 H 18.227999 v 5.11596 H 1.8626451e-8 V 269.03271 H 6.6507565 Z" />
      <path
         id="path825"
         style="font-style:normal;font-variant:normal;font-weight:bold;font-stretch:normal;font-size:38.80555344px;font-family:'Roboto Black';-inkscape-font-specification:'Roboto Black, Bold';fill:#3090ff;fill-opacity:1;stroke-width:0.26458332"
         d="m 42.254093,269.03271 v 18.05747 q 0,3.06958 -1.307413,5.32439 -1.307414,2.23587 -3.751709,3.41065 -2.444295,1.17477 -5.779147,1.17477 -5.040175,0 -7.939222,-2.61482 -2.899048,-2.61483 -2.955892,-7.16236 v -18.1901 h 6.688652 v 18.32274 q 0.113688,4.52858 4.206462,4.52858 2.065334,0 3.126424,-1.13688 1.061089,-1.13689 1.061089,-3.69487 v -18.01957 z" />
      <path
         id="path827"
         style="font-style:normal;font-variant:normal;font-weight:bold;font-stretch:normal;font-size:38.80555344px;font-family:'Roboto Black';-inkscape-font-specification:'Roboto Black, Bold';fill:#3090ff;fill-opacity:1;stroke-width:0.26458332"
         d="m 61.675818,291.46717 h -9.113999 l -1.591635,5.15386 H 43.864675 L 53.98292,269.03271 h 6.252848 l 10.194037,27.58832 H 63.2864 Z m -7.522365,-5.13491 h 5.930731 l -2.97484,-9.56876 z" />
      <path
         id="path829"
         style="font-style:normal;font-variant:normal;font-weight:bold;font-stretch:normal;font-size:38.80555344px;font-family:'Roboto Black';-inkscape-font-specification:'Roboto Black, Bold';fill:#3090ff;fill-opacity:1;stroke-width:0.26458332"
         d="m 82.746022,278.20355 4.50963,-9.17084 h 7.598157 l -7.711845,13.68047 7.920274,13.90785 h -7.67395 l -4.642266,-9.34137 -4.642266,9.34137 h -7.655002 l 7.901326,-13.90785 -7.692897,-13.68047 h 7.579209 z" />
    </g>
  </g>
</svg>
