<?xml version="1.0" encoding="UTF-8"?>
<svg width="10mm" height="10mm" version="1.1" viewBox="0 0 10 10" xmlns="http://www.w3.org/2000/svg">
 <g transform="rotate(-90 -138.5 148.5)">
  <g aria-label="luax">
   <path d="m0.74902 290.33v3.341h0.68792v-3.341zm0.98185 1.1675v1.4995c0 0.14464 0.02113 0.27518 0.06346 0.3916 0.04247 0.1078 0.09872 0.20184 0.16841 0.28241h2.1123v-2.1735h-0.68264v1.2878c0 0.17287-0.04584 0.31577-0.13756 0.42867-0.08819 0.10936-0.22049 0.16401-0.39688 0.16401-0.29281 0-0.4392-0.16229-0.4392-0.48684v-1.3937zm2.8904 0c-0.07284 0.0748-0.12793 0.16186-0.16521 0.26127-0.03881 0.11289-0.05998 0.23636-0.06351 0.37042h0.64027c0.01764-0.11642 0.05999-0.20989 0.12702-0.28045 0.07055-0.0705 0.18521-0.10583 0.34396-0.10583 0.13406 0 0.23989 0.0247 0.3175 0.074 0.08114 0.0459 0.1217 0.11115 0.1217 0.19581 0 0.0917-0.03 0.15873-0.08997 0.20107-0.05997 0.0388-0.17637 0.0705-0.34923 0.0952s-0.33341 0.053-0.48157 0.0847c-0.14464 0.0282-0.26986 0.0741-0.37569 0.13758-0.10583 0.0635-0.18875 0.15168-0.24872 0.26457-0.05997 0.10936-0.08997 0.25755-0.08997 0.44452 0 0.168 0.04355 0.31147 0.13022 0.43057h2.2087v-1.4307c0-0.16227-0.01938-0.30692-0.05819-0.43392-0.03675-0.12362-0.09595-0.22639-0.17699-0.30887zm2.3763 0 0.70394 1.0603-0.73179 1.1132h0.8062l0.32246-0.5682 0.33016 0.5682h0.82238l-0.74507-1.1132 0.71711-1.0603h-0.7799l-0.31822 0.54172-0.3144-0.54172zm-1.0387 1.1132-0.0053 0.28578c0 0.0776-0.01764 0.15171-0.05292 0.22226-0.03175 0.067-0.07585 0.12697-0.13229 0.17989-0.05292 0.0494-0.11819 0.0899-0.1958 0.12168-0.07408 0.0282-0.1552 0.0424-0.2434 0.0424-0.22225 0-0.33342-0.097-0.33342-0.29105 0-0.11289 0.03707-0.19934 0.11116-0.25931 0.07408-0.06 0.20991-0.10935 0.40747-0.14816 0.127-0.0247 0.22401-0.0476 0.29104-0.0688s0.11815-0.0494 0.15343-0.0847z" fill="#3090ff" stroke-width=".026458"/>
  </g>
 </g>
</svg>
